<svg width="41" height="41" viewBox="0 0 41 41" fill="none" xmlns="http://www.w3.org/2000/svg">
<path d="M12.1666 28.8332C14.0865 28.8306 15.9468 28.1661 17.4339 26.9517C18.921 25.7372 19.9438 24.0472 20.3299 22.1665H23.8333V25.4998H27.1666V22.1665H30.4999V27.1665H33.8333V22.1665H35.4999V18.8332H20.3299C19.9438 16.9525 18.921 15.2624 17.4339 14.048C15.9468 12.8336 14.0865 12.1691 12.1666 12.1665C7.57159 12.1665 3.83325 15.9048 3.83325 20.4998C3.83325 25.0948 7.57159 28.8332 12.1666 28.8332ZM12.1666 15.4998C14.9233 15.4998 17.1666 17.7432 17.1666 20.4998C17.1666 23.2565 14.9233 25.4998 12.1666 25.4998C9.40992 25.4998 7.16659 23.2565 7.16659 20.4998C7.16659 17.7432 9.40992 15.4998 12.1666 15.4998Z" fill="white"/>
</svg>
