<svg width="21" height="21" viewBox="0 0 21 21" fill="none" xmlns="http://www.w3.org/2000/svg">
<path d="M6.34464 10.5873L2.50418 6.74687C0.992272 8.39505 0.419338 10.0462 0.409391 10.08L0.303955 10.3944L0.408396 10.7087C0.430279 10.7753 2.71207 17.3571 10.3045 17.3571C11.2285 17.3571 12.07 17.2556 12.8429 17.0856L10.1115 14.3542C9.12803 14.306 8.19767 13.8936 7.50143 13.1974C6.80519 12.5011 6.39285 11.5708 6.34464 10.5873ZM10.3045 3.43161C8.45932 3.43161 6.94741 3.83346 5.68715 4.4243L2.00187 0.739014L0.595396 2.14549L18.4996 20.0497L19.9061 18.6432L16.6256 15.3628C19.2496 13.4202 20.1856 10.7505 20.1995 10.7087L20.304 10.3944L20.1995 10.08C20.1776 10.0134 17.8968 3.43161 10.3045 3.43161ZM12.2003 10.9375C12.3863 10.2641 12.2282 9.50611 11.7109 8.98788C11.1937 8.46966 10.4348 8.3125 9.76136 8.4985L8.26138 6.99853C8.87606 6.62053 9.58286 6.41888 10.3045 6.41564C12.4987 6.41564 14.2832 8.2001 14.2832 10.3944C14.2802 11.1158 14.0782 11.8225 13.6993 12.4364L12.2003 10.9375Z" fill="#1B1B1B" fill-opacity="0.5"/>
</svg>
