<svg width="137" height="136" viewBox="0 0 137 136" fill="none" xmlns="http://www.w3.org/2000/svg">
<g clip-path="url(#clip0_24_4649)">
<path d="M4.8605 12.8625C7.64859 10.0724 11.4307 8.50392 15.375 8.50195H45.125C49.8 8.50195 54.22 10.712 57.025 14.452L64.675 24.652C64.8729 24.9159 65.1296 25.1301 65.4247 25.2776C65.7197 25.4251 66.0451 25.502 66.375 25.502H111C113.254 25.502 115.416 26.3975 117.01 27.9915C118.604 29.5856 119.5 31.7476 119.5 34.002V38.252H23.875C22.1842 38.252 20.5627 38.9236 19.3672 40.1191C18.1716 41.3147 17.5 42.9362 17.5 44.627C17.5 46.3177 18.1716 47.9392 19.3672 49.1348C20.5627 50.3303 22.1842 51.002 23.875 51.002H125.688C126.889 51.0009 128.076 51.2543 129.172 51.7454C130.268 52.2366 131.247 52.9543 132.045 53.8513C132.843 54.7484 133.443 55.8044 133.803 56.9497C134.164 58.0951 134.277 59.3039 134.137 60.4965L128 112.627C128 116.572 126.433 120.356 123.643 123.145C120.854 125.935 117.07 127.502 113.125 127.502H15.375C11.4299 127.502 7.64639 125.935 4.85679 123.145C2.06718 120.356 0.5 116.572 0.5 112.627L0.5 23.377C0.5 19.433 2.064 15.642 4.8605 12.8625Z" fill="#07A2F3"/>
<path d="M83.1 83.802V92.202H73.5V101.802H65.1V92.202H55.5V83.802H65.1V74.202H73.5V83.802H83.1Z" fill="white"/>
</g>
<defs>
<clipPath id="clip0_24_4649">
<rect width="136" height="136" fill="white" transform="translate(0.5 0.00195312)"/>
</clipPath>
</defs>
</svg>
