<svg width="14" height="14" viewBox="0 0 14 14" fill="none" xmlns="http://www.w3.org/2000/svg">
<path d="M7.6669 2.37937H7.6969V2.34937C7.6969 2.05676 7.58066 1.77613 7.37375 1.56922C7.16685 1.36231 6.88622 1.24607 6.59361 1.24607C6.301 1.24607 6.02037 1.36231 5.81346 1.56922C5.60656 1.77613 5.49032 2.05676 5.49032 2.34937V2.37937H5.52032H7.6669ZM4.80479 2.37937H4.83479V2.34937C4.83479 1.8829 5.02009 1.43554 5.34993 1.10569C5.67978 0.775851 6.12714 0.590547 6.59361 0.590547C7.06008 0.590547 7.50744 0.775851 7.83728 1.10569C8.16712 1.43554 8.35243 1.8829 8.35243 2.34937V2.37937H8.38243H11.9601C12.047 2.37937 12.1304 2.4139 12.1918 2.47537C12.2533 2.53683 12.2878 2.6202 12.2878 2.70713C12.2878 2.79406 12.2533 2.87743 12.1918 2.93889C12.1304 3.00036 12.047 3.03489 11.9601 3.03489H11.2059H11.1792L11.1761 3.06145L10.8331 6.02921C10.6212 5.973 10.405 5.93452 10.1867 5.91417L10.5159 3.06834L10.5198 3.03489H10.4861H2.70185H2.66819L2.67205 3.06833L3.51637 10.3882L3.51637 10.3882C3.55759 10.7443 3.72826 11.0727 3.99591 11.3112C4.26355 11.5496 4.6095 11.6813 4.96793 11.6812H6.28909C6.4096 11.9143 6.55249 12.1337 6.71454 12.3368H4.96793C4.44863 12.3367 3.94746 12.1458 3.55979 11.8003C3.17212 11.4547 2.925 10.9788 2.86546 10.4629L2.01112 3.06145L2.00805 3.03489H1.98132H1.22715C1.14022 3.03489 1.05685 3.00036 0.995385 2.93889C0.933917 2.87743 0.899385 2.79406 0.899385 2.70713C0.899385 2.6202 0.933917 2.53683 0.995385 2.47537C1.05685 2.4139 1.14022 2.37937 1.22715 2.37937H4.80479ZM11.1613 9.06364L11.1613 9.06363C11.2341 8.99082 11.275 8.89208 11.275 8.78912C11.275 8.68616 11.2341 8.58741 11.1613 8.51461C11.0885 8.4418 10.9897 8.4009 10.8868 8.4009C10.7838 8.4009 10.6851 8.4418 10.6123 8.51461L10.6123 8.51462L9.81348 9.31409L9.01471 8.51462L9.0147 8.51461C8.9419 8.4418 8.84315 8.4009 8.74019 8.4009C8.63723 8.4009 8.53849 8.4418 8.46568 8.51461C8.39288 8.58741 8.35198 8.68616 8.35198 8.78912C8.35198 8.89208 8.39288 8.99082 8.46568 9.06363L8.46569 9.06364L9.26516 9.86241L8.46569 10.6612L8.46568 10.6612C8.42963 10.6972 8.40104 10.74 8.38153 10.7871C8.36202 10.8342 8.35198 10.8847 8.35198 10.9357C8.35198 10.9867 8.36202 11.0372 8.38153 11.0843C8.40104 11.1314 8.42963 11.1742 8.46568 11.2102C8.50173 11.2463 8.54453 11.2749 8.59163 11.2944C8.63873 11.3139 8.68921 11.3239 8.74019 11.3239C8.79117 11.3239 8.84166 11.3139 8.88876 11.2944C8.93586 11.2749 8.97865 11.2463 9.0147 11.2102L9.01471 11.2102L9.81348 10.4107L10.6123 11.2102L10.6123 11.2102C10.6483 11.2463 10.6911 11.2749 10.7382 11.2944C10.7853 11.3139 10.8358 11.3239 10.8868 11.3239C10.9378 11.3239 10.9882 11.3139 11.0353 11.2944C11.0824 11.2749 11.1252 11.2463 11.1613 11.2102C11.1973 11.1742 11.2259 11.1314 11.2454 11.0843C11.265 11.0372 11.275 10.9867 11.275 10.9357C11.275 10.8847 11.265 10.8342 11.2454 10.7871C11.2259 10.74 11.1973 10.6972 11.1613 10.6612L11.1613 10.6612L10.3618 9.86241L11.1613 9.06364ZM13.0034 9.86241C13.0034 10.7084 12.6673 11.5198 12.0691 12.118C11.4708 12.7162 10.6595 13.0523 9.81348 13.0523C8.96748 13.0523 8.15612 12.7162 7.5579 12.118C6.95968 11.5198 6.62361 10.7084 6.62361 9.86241C6.62361 9.0164 6.95968 8.20505 7.5579 7.60683C8.15612 7.00861 8.96748 6.67253 9.81348 6.67253C10.6595 6.67253 11.4708 7.00861 12.0691 7.60683C12.6673 8.20505 13.0034 9.0164 13.0034 9.86241Z" fill="#1C2630" fill-opacity="0.5" stroke="#FEFEFE" stroke-width="0.06"/>
</svg>
