<svg xmlns="http://www.w3.org/2000/svg" width="24" height="24" viewBox="0 0 24 24" fill="none">
  <path d="M13.343 3.47857H13.393V3.42857C13.393 2.86972 13.171 2.33376 12.7759 1.9386C12.3807 1.54343 11.8447 1.32143 11.2859 1.32143C10.727 1.32143 10.1911 1.54343 9.79591 1.9386C9.40074 2.33376 9.17874 2.86972 9.17874 3.42857V3.47857H9.22874H13.343ZM7.85731 3.47857H7.90731V3.42857C7.90731 2.53252 8.26327 1.67317 8.89687 1.03956C9.53047 0.405956 10.3898 0.05 11.2859 0.05C12.1819 0.05 13.0413 0.405956 13.6749 1.03956C14.3085 1.67317 14.6645 2.53252 14.6645 3.42857V3.47857H14.7145H21.5716C21.7402 3.47857 21.9019 3.54555 22.0211 3.66477C22.1403 3.78399 22.2073 3.94568 22.2073 4.11429C22.2073 4.28289 22.1403 4.44458 22.0211 4.5638C21.9019 4.68302 21.7402 4.75 21.5716 4.75H20.1261H20.0816L20.0764 4.79426L19.418 10.4911C19.0071 10.3816 18.5877 10.3069 18.1643 10.2679L18.7961 4.80575L18.8026 4.75H18.7465H3.82668H3.77058L3.77701 4.80573L5.3953 18.8354L5.3953 18.8355C5.47409 19.5161 5.80033 20.144 6.31194 20.5997C6.82355 21.0555 7.48484 21.3072 8.17 21.3071H10.7068C10.9404 21.7596 11.218 22.1852 11.5333 22.5786H8.17C7.17283 22.5785 6.21049 22.2118 5.46608 21.5484C4.72167 20.8849 4.24715 19.9709 4.13281 18.9803L2.49532 4.79427L2.49021 4.75H2.44565H1.00017C0.831566 4.75 0.669869 4.68302 0.55065 4.5638C0.43143 4.44458 0.364453 4.28289 0.364453 4.11429C0.364453 3.94568 0.43143 3.78399 0.55065 3.66477C0.669869 3.54555 0.831565 3.47857 1.00017 3.47857H7.85731ZM20.0353 16.2923L20.0353 16.2923C20.1734 16.1541 20.251 15.9668 20.251 15.7714C20.251 15.5761 20.1734 15.3887 20.0353 15.2506C19.8972 15.1125 19.7098 15.0348 19.5145 15.0348C19.3191 15.0348 19.1317 15.1125 18.9936 15.2506L18.9936 15.2506L17.4573 16.7882L15.921 15.2506L15.921 15.2506C15.7829 15.1125 15.5955 15.0348 15.4002 15.0348C15.2048 15.0348 15.0175 15.1125 14.8793 15.2506C14.7412 15.3887 14.6636 15.5761 14.6636 15.7714C14.6636 15.9668 14.7412 16.1541 14.8793 16.2923L14.8793 16.2923L16.417 17.8286L14.8793 19.3649L14.8793 19.3649C14.8109 19.4333 14.7567 19.5145 14.7197 19.6038C14.6826 19.6932 14.6636 19.789 14.6636 19.8857C14.6636 19.9824 14.6826 20.0782 14.7197 20.1676C14.7567 20.257 14.8109 20.3382 14.8793 20.4066C14.9477 20.475 15.0289 20.5292 15.1183 20.5662C15.2077 20.6032 15.3034 20.6223 15.4002 20.6223C15.4969 20.6223 15.5927 20.6032 15.682 20.5662C15.7714 20.5292 15.8526 20.475 15.921 20.4066L15.921 20.4065L17.4573 18.8689L18.9936 20.4065L18.9936 20.4066C19.062 20.475 19.1432 20.5292 19.2326 20.5662C19.3219 20.6032 19.4177 20.6223 19.5145 20.6223C19.6112 20.6223 19.707 20.6032 19.7963 20.5662C19.8857 20.5292 19.9669 20.475 20.0353 20.4066C20.1037 20.3382 20.1579 20.257 20.195 20.1676C20.232 20.0782 20.251 19.9824 20.251 19.8857C20.251 19.789 20.232 19.6932 20.195 19.6038C20.1579 19.5145 20.1037 19.4333 20.0353 19.3649L20.0353 19.3649L18.4976 17.8286L20.0353 16.2923ZM23.5787 17.8286C23.5787 19.4521 22.9338 21.0091 21.7858 22.1571C20.6378 23.3051 19.0808 23.95 17.4573 23.95C15.8338 23.95 14.2768 23.3051 13.1288 22.1571C11.9808 21.0091 11.3359 19.4521 11.3359 17.8286C11.3359 16.2051 11.9808 14.6481 13.1288 13.5001C14.2768 12.3521 15.8338 11.7071 17.4573 11.7071C19.0808 11.7071 20.6378 12.3521 21.7858 13.5001C22.9338 14.6481 23.5787 16.2051 23.5787 17.8286Z" fill="#FF0000" fill-opacity="0.5" stroke="#FF0000" stroke-width="0.1"/>
</svg>