<svg width="68" height="68" viewBox="0 0 68 68" fill="none" xmlns="http://www.w3.org/2000/svg">
<path d="M8.3999 39.933V28.733C8.3999 18.1742 8.3999 12.8934 11.6815 9.61461C14.9603 6.33301 20.2411 6.33301 30.7999 6.33301H36.3999C46.9587 6.33301 52.2395 6.33301 55.5183 9.61461C57.3495 11.443 58.1587 13.893 58.5143 17.533M58.7999 28.733V39.933C58.7999 50.4918 58.7999 55.7726 55.5183 59.0514C52.2395 62.333 46.9587 62.333 36.3999 62.333H30.7999C20.2411 62.333 14.9603 62.333 11.6815 59.0514C9.8503 57.223 9.0411 54.773 8.6855 51.133M22.3999 39.933H36.3999M22.3999 28.733H25.1999M44.7999 28.733H33.5999" stroke="#896DDB" stroke-width="4.2" stroke-linecap="round"/>
</svg>
