<svg width="136" height="136" viewBox="0 0 136 136" fill="none" xmlns="http://www.w3.org/2000/svg">
<path d="M4.3605 12.8605C7.14859 10.0704 10.9307 8.50197 14.875 8.5H44.625C49.3 8.5 53.72 10.71 56.525 14.45L64.175 24.65C64.3729 24.9139 64.6296 25.1281 64.9247 25.2757C65.2197 25.4232 65.5451 25.5 65.875 25.5H110.5C112.754 25.5 114.916 26.3955 116.51 27.9896C118.104 29.5837 119 31.7457 119 34V38.25H23.375C21.6842 38.25 20.0627 38.9216 18.8672 40.1172C17.6716 41.3127 17 42.9342 17 44.625C17 46.3158 17.6716 47.9373 18.8672 49.1328C20.0627 50.3284 21.6842 51 23.375 51H125.188C126.389 50.999 127.576 51.2523 128.672 51.7435C129.768 52.2346 130.747 52.9523 131.545 53.8494C132.343 54.7464 132.943 55.8024 133.303 56.9478C133.664 58.0932 133.777 59.302 133.637 60.4945L127.5 112.625C127.5 116.57 125.933 120.354 123.143 123.143C120.354 125.933 116.57 127.5 112.625 127.5H14.875C10.9299 127.5 7.14639 125.933 4.35679 123.143C1.56718 120.354 0 116.57 0 112.625L0 23.375C0 19.431 1.564 15.64 4.3605 12.8605Z" fill="#896DDB"/>
</svg>
