<svg width="136" height="136" viewBox="0 0 136 136" fill="none" xmlns="http://www.w3.org/2000/svg">
<path d="M4.3605 12.8625C7.14859 10.0724 10.9307 8.50392 14.875 8.50195H44.625C49.3 8.50195 53.72 10.712 56.525 14.452L64.175 24.652C64.3729 24.9159 64.6296 25.1301 64.9247 25.2776C65.2197 25.4251 65.5451 25.502 65.875 25.502H110.5C112.754 25.502 114.916 26.3975 116.51 27.9915C118.104 29.5856 119 31.7476 119 34.002V38.252H23.375C21.6842 38.252 20.0627 38.9236 18.8672 40.1191C17.6716 41.3147 17 42.9362 17 44.627C17 46.3177 17.6716 47.9392 18.8672 49.1348C20.0627 50.3303 21.6842 51.002 23.375 51.002H125.188C126.389 51.0009 127.576 51.2543 128.672 51.7454C129.768 52.2366 130.747 52.9543 131.545 53.8513C132.343 54.7484 132.943 55.8044 133.303 56.9497C133.664 58.0951 133.777 59.3039 133.637 60.4965L127.5 112.627C127.5 116.572 125.933 120.356 123.143 123.145C120.354 125.935 116.57 127.502 112.625 127.502H14.875C10.9299 127.502 7.14639 125.935 4.35679 123.145C1.56718 120.356 0 116.572 0 112.627L0 23.377C0 19.433 1.564 15.642 4.3605 12.8625Z" fill="#07A2F3"/>
</svg>
