<svg width="136" height="136" viewBox="0 0 136 136" fill="none" xmlns="http://www.w3.org/2000/svg">
<path d="M4.3605 12.8605C7.14859 10.0704 10.9307 8.50197 14.875 8.5H44.625C49.3 8.5 53.72 10.71 56.525 14.45L64.175 24.65C64.3729 24.9139 64.6296 25.1281 64.9247 25.2757C65.2197 25.4232 65.5451 25.5 65.875 25.5H110.5C112.754 25.5 114.916 26.3955 116.51 27.9896C118.104 29.5837 119 31.7457 119 34V38.25H23.375C21.6842 38.25 20.0627 38.9216 18.8672 40.1172C17.6716 41.3127 17 42.9342 17 44.625C17 46.3158 17.6716 47.9373 18.8672 49.1328C20.0627 50.3284 21.6842 51 23.375 51H125.188C126.389 50.999 127.576 51.2523 128.672 51.7435C129.768 52.2346 130.747 52.9523 131.545 53.8494C132.343 54.7464 132.943 55.8024 133.303 56.9478C133.664 58.0932 133.777 59.302 133.637 60.4945L127.5 112.625C127.5 116.57 125.933 120.354 123.143 123.143C120.354 125.933 116.57 127.5 112.625 127.5H14.875C10.9299 127.5 7.14639 125.933 4.35679 123.143C1.56718 120.354 0 116.57 0 112.625L0 23.375C0 19.431 1.564 15.64 4.3605 12.8605Z" fill="#6DDB71"/>
<path d="M115.646 125.944L116 126.297L116.354 125.944L125.36 116.94L125.714 116.585L125.358 116.231L123.762 114.645L123.409 114.294L123.056 114.646L116 121.703L112.944 118.646L112.59 118.293L112.236 118.646L110.646 120.236L110.293 120.59L110.646 120.944L115.646 125.944ZM110.5 108.775C112.72 107.292 115.33 106.5 118 106.5C121.58 106.5 125.014 107.922 127.546 110.454C130.078 112.986 131.5 116.42 131.5 120C131.5 122.67 130.708 125.28 129.225 127.5C127.741 129.72 125.633 131.451 123.166 132.472C120.699 133.494 117.985 133.762 115.366 133.241C112.748 132.72 110.342 131.434 108.454 129.546C106.566 127.658 105.28 125.252 104.759 122.634C104.239 120.015 104.506 117.301 105.528 114.834C106.549 112.367 108.28 110.259 110.5 108.775Z" fill="white" stroke="black"/>
</svg>
