<svg width="14" height="14" viewBox="0 0 14 14" fill="none" xmlns="http://www.w3.org/2000/svg">
<path d="M9.03434 1.48133L8.99191 1.4389L8.94948 1.48133L7.50467 2.92615L7.46224 2.96857L7.50467 3.011L9.23845 4.74478L9.28087 4.78721L9.3233 4.74478L10.7681 3.29996L10.8105 3.25754L10.7681 3.21511L9.03434 1.48133ZM1.99679 10.1927V10.2527H2.05679H3.79057H3.81542L3.833 10.2351L8.64905 5.41903L8.69148 5.3766L8.64905 5.33417L6.91527 3.60039L6.87285 3.55797L6.83042 3.60039L2.01437 8.41645L1.99679 8.43402V8.45887V10.1927ZM13.5553 12.1791V13.0223H0.190371V12.1791H13.5553ZM11.3575 2.62572C11.7194 2.98757 11.7194 3.5275 11.3575 3.88936L4.151 11.0959H1.15358V8.09844L8.36009 0.891937C8.72194 0.530084 9.26188 0.530084 9.62373 0.891937L11.3575 2.62572Z" fill="#1C2630" fill-opacity="0.5" stroke="#F9F9F9" stroke-width="0.12"/>
</svg>
