<svg width="32" height="33" viewBox="0 0 32 33" fill="none" xmlns="http://www.w3.org/2000/svg">
<path d="M16 30.5606C13.2311 30.5606 10.5243 29.7395 8.22202 28.2011C5.91973 26.6628 4.12532 24.4763 3.06569 21.9181C2.00607 19.36 1.72882 16.545 2.26901 13.8293C2.80921 11.1136 4.14258 8.61899 6.10051 6.66106C8.05845 4.70312 10.553 3.36975 13.2687 2.82956C15.9845 2.28937 18.7994 2.56661 21.3576 3.62624C23.9157 4.68587 26.1022 6.48028 27.6406 8.78257C29.1789 11.0849 30 13.7916 30 16.5606C30 20.2736 28.525 23.8345 25.8995 26.46C23.274 29.0856 19.713 30.5606 16 30.5606ZM16 4.56055C13.6266 4.56055 11.3066 5.26434 9.33316 6.58292C7.35977 7.90149 5.8217 9.77564 4.91345 11.9684C4.0052 14.1611 3.76756 16.5739 4.23058 18.9016C4.69361 21.2294 5.83649 23.3676 7.51472 25.0458C9.19296 26.7241 11.3312 27.867 13.6589 28.33C15.9867 28.793 18.3995 28.5554 20.5922 27.6471C22.7849 26.7389 24.6591 25.2008 25.9776 23.2274C27.2962 21.254 28 18.9339 28 16.5606C28 13.378 26.7357 10.3257 24.4853 8.07527C22.2348 5.82484 19.1826 4.56055 16 4.56055Z" fill="black"/>
<path d="M20.59 22.5605L15 16.9705V7.56055H17V16.1405L22 21.1505L20.59 22.5605Z" fill="black"/>
</svg>
