<svg width="132" height="140" viewBox="0 0 132 140" fill="none" xmlns="http://www.w3.org/2000/svg">
<path d="M65.9081 0L129.816 31.2292L65.9081 62.4583L2 31.2292L65.9081 0Z" fill="#07A2F3"/>
<path d="M107.611 29.6097L65.9081 49.9907L24.2126 29.6097L65.9081 9.23578L107.611 29.6097Z" fill="#07A2F3"/>
<g style="mix-blend-mode:multiply">
<path d="M100.235 33.2163L65.9082 49.9906L31.5886 33.2163L65.9082 16.4419L100.235 33.2163Z" fill="#F1F1F1"/>
</g>
<g style="mix-blend-mode:screen">
<mask id="mask0_1_247" style="mask-type:luminance" maskUnits="userSpaceOnUse" x="24" y="9" width="84" height="41">
<path d="M107.611 29.6168L65.9081 49.9907L24.2126 29.6168L65.9081 9.23578L107.611 29.6168Z" fill="white"/>
</mask>
<g mask="url(#mask0_1_247)">
<g style="mix-blend-mode:multiply">
<path d="M100.235 41.0095L65.9079 57.7839L31.5884 41.0095L65.9079 24.2352L100.235 41.0095Z" fill="#D1CEDA"/>
</g>
<g style="mix-blend-mode:multiply">
<path d="M100.235 48.8027L65.9079 65.5771L31.5884 48.8027L65.9079 32.0283L100.235 48.8027Z" fill="#D1CEDA"/>
</g>
<g style="mix-blend-mode:multiply">
<path d="M100.235 56.5958L65.9079 73.3702L31.5884 56.5958L65.9079 39.8215L100.235 56.5958Z" fill="#D1CEDA"/>
</g>
<g style="mix-blend-mode:multiply">
<path d="M100.235 64.389L65.9079 81.1563L31.5884 64.389L65.9079 47.6146L100.235 64.389Z" fill="#D1CEDA"/>
</g>
</g>
</g>
<path d="M114.477 72.1396L66.3537 94.7623L65.9082 67.5783L114.477 43.8452V72.1396Z" fill="#07A2F3"/>
<path d="M17.8199 72.1396L66.3892 94.7694V67.5783L17.8199 43.8452V72.1396Z" fill="#07A2F3"/>
<path d="M7.65746 54.3186L2 49.5027V68.731L7.65746 73.5469V54.3186Z" fill="#07A2F3"/>
<path d="M7.65746 40.175L2 35.3591V45.9668L7.65746 50.5635V40.175Z" fill="#07A2F3"/>
<path d="M2.25759 120.798H4.80159V133.47H2.25759V120.798ZM2.25759 116.022H4.82559V118.974H2.25759V116.022ZM10.2211 120.798H15.4531C19.7491 120.798 21.8371 122.838 21.8371 126.342V133.47H19.2691V126.342C19.2691 124.35 18.1171 123.246 15.4531 123.246H11.3011C11.0851 123.246 10.9891 123.366 10.9891 123.606V133.47H8.44509V122.766C8.44509 121.278 8.94909 120.798 10.2211 120.798ZM28.9418 120.798H35.9738V123.246H28.9658C27.7898 123.246 27.3098 123.726 27.3098 124.686C27.3098 125.574 27.6938 126.054 29.1098 126.054H32.0858C35.5898 126.054 36.4778 127.662 36.4778 129.63C36.4778 131.886 35.3018 133.47 32.3258 133.47H24.9578V130.998H32.3258C33.5018 130.998 33.9818 130.59 33.9818 129.606C33.9818 128.598 33.4538 128.19 32.1818 128.19H29.1818C25.6778 128.19 24.8138 126.438 24.8138 124.494C24.8138 122.214 25.9898 120.798 28.9418 120.798ZM39.4763 120.798H42.0203V133.47H39.4763V120.798ZM39.4763 116.022H42.0443V118.974H39.4763V116.022ZM56.1518 115.302H58.7198V128.046C58.7198 131.694 57.0878 133.47 54.0638 133.47H50.5598C47.1758 133.47 45.0638 131.406 45.0638 127.134C45.0638 122.862 47.1758 120.798 50.5598 120.798H56.1518V115.302ZM53.3198 130.998C55.3598 130.998 56.1518 130.086 56.1518 127.926V123.246H50.7998C48.6158 123.246 47.6318 124.398 47.6318 127.134C47.6318 129.87 48.6158 130.998 50.7998 130.998H53.3198ZM66.5033 120.798H70.6073C73.6073 120.798 74.8793 122.238 74.8793 124.686C74.8793 127.014 73.7033 128.334 70.5833 128.334H64.5593V129.246C64.5593 130.254 65.1113 130.998 66.5033 130.998H74.2553V133.47H66.5033C63.3353 133.47 62.0873 131.694 62.0873 129.294V124.974C62.0873 122.574 63.3353 120.798 66.5033 120.798ZM64.5593 124.998V126.342H70.5113C71.8793 126.342 72.3833 125.766 72.3833 124.83C72.3833 123.87 71.8313 123.246 70.5833 123.246H66.5033C65.1113 123.246 64.5593 124.014 64.5593 124.998ZM85.894 117.27H93.022C96.838 117.27 98.446 119.07 98.446 121.71C98.446 123.582 97.63 124.71 96.118 125.31C97.654 125.934 98.518 127.134 98.518 129.006C98.518 131.598 96.91 133.47 93.094 133.47H85.894C84.982 133.47 84.55 133.038 84.55 132.15V118.59C84.55 117.702 84.982 117.27 85.894 117.27ZM87.334 126.462V130.398C87.334 130.59 87.454 130.662 87.646 130.662H93.166C94.87 130.662 95.662 129.87 95.662 128.55C95.662 127.182 94.822 126.462 93.166 126.462H87.334ZM87.334 120.342V124.11H93.094C94.774 124.11 95.59 123.486 95.59 122.166C95.59 120.894 94.846 120.054 93.118 120.054H87.646C87.454 120.054 87.334 120.15 87.334 120.342ZM106.552 120.798H109.216C112.576 120.798 114.712 122.862 114.712 127.134C114.712 131.406 112.576 133.47 109.216 133.47H106.552C103.168 133.47 101.056 131.406 101.056 127.134C101.056 122.862 103.168 120.798 106.552 120.798ZM108.976 123.246H106.792C104.584 123.246 103.624 124.398 103.624 127.134C103.624 129.87 104.584 130.998 106.792 130.998H108.976C111.16 130.998 112.144 129.87 112.144 127.134C112.144 124.398 111.16 123.246 108.976 123.246ZM116.094 120.798H119.31L123.51 125.382L127.878 120.798H131.046L125.094 127.11L131.118 133.47H127.878L123.414 128.598L118.854 133.47H115.686L121.854 126.87L116.094 120.798Z" fill="#07A2F3"/>
</svg>
