<svg width="40" height="41" viewBox="0 0 40 41" fill="none" xmlns="http://www.w3.org/2000/svg">
<path fill-rule="evenodd" clip-rule="evenodd" d="M11.46 25.767C12.445 27.3815 13.8675 28.6836 15.5625 29.5225C17.2576 30.3614 19.1557 30.7026 21.0367 30.5065C22.9178 30.3104 24.7047 29.585 26.1903 28.4146C27.6758 27.2442 28.7992 25.6766 29.43 23.8936H32.9133C32.2742 26.3642 30.9397 28.5995 29.0683 30.3344C27.1968 32.0693 24.867 33.231 22.3552 33.6815C19.8434 34.1321 17.2551 33.8527 14.8973 32.8764C12.5396 31.9001 10.5114 30.268 9.05333 28.1736L5 32.227V22.227H15L11.46 25.767ZM28.5417 15.352C27.5562 13.7372 26.1331 12.4349 24.4376 11.596C22.7421 10.7572 20.8435 10.4161 18.962 10.6123C17.0805 10.8086 15.2932 11.5342 13.8072 12.7049C12.3213 13.8757 11.1977 15.4436 10.5667 17.227H7.08333C7.72227 14.7555 9.05683 12.5192 10.9287 10.7834C12.8005 9.04766 15.131 7.88536 17.6436 7.43442C20.1562 6.98349 22.7454 7.26285 25.104 8.23937C27.4626 9.21588 29.4915 10.8486 30.95 12.9436L35 8.89362V18.8936H25L28.5417 15.352Z" fill="black"/>
</svg>
