<svg width="37" height="39" viewBox="0 0 37 39" fill="none" xmlns="http://www.w3.org/2000/svg">
<path d="M27.5928 18.0273C28.5369 26.7617 32.25 29.4023 32.25 29.4023H3C3 29.4023 7.875 25.9362 7.875 13.8023C7.875 11.0447 8.902 8.39922 10.7301 6.44922C12.5599 4.49922 15.0412 3.40234 17.625 3.40234C18.1726 3.40234 18.717 3.45109 19.25 3.54859M20.4362 34.2773C20.1509 34.7703 19.7409 35.1795 19.2475 35.464C18.7541 35.7485 18.1946 35.8982 17.625 35.8982C17.0554 35.8982 16.4959 35.7485 16.0025 35.464C15.5091 35.1795 15.0991 34.7703 14.8138 34.2773M29 13.1523C30.2929 13.1523 31.5329 12.6387 32.4471 11.7245C33.3614 10.8102 33.875 9.57027 33.875 8.27734C33.875 6.98441 33.3614 5.74444 32.4471 4.8302C31.5329 3.91596 30.2929 3.40234 29 3.40234C27.7071 3.40234 26.4671 3.91596 25.5529 4.8302C24.6386 5.74444 24.125 6.98441 24.125 8.27734C24.125 9.57027 24.6386 10.8102 25.5529 11.7245C26.4671 12.6387 27.7071 13.1523 29 13.1523Z" stroke="black" stroke-width="1.5" stroke-linecap="round" stroke-linejoin="round"/>
</svg>
