<svg width="72" height="72" viewBox="0 0 72 72" fill="none" xmlns="http://www.w3.org/2000/svg">
<g clip-path="url(#clip0_113_3508)">
<path fill-rule="evenodd" clip-rule="evenodd" d="M17.0083 14.2792C17.0887 13.5977 17.3272 12.9444 17.7047 12.3714C18.0821 11.7984 18.5882 11.3214 19.1826 10.9785C19.7769 10.6355 20.4431 10.4361 21.1282 10.3962C21.8132 10.3562 22.4981 10.4767 23.1283 10.7482C26.3143 12.1102 33.4543 15.3472 42.5143 20.5762C51.5773 25.8082 57.9523 30.3772 60.7213 32.4502C63.0853 34.2232 63.0913 37.7392 60.7243 39.5182C57.9823 41.5792 51.6853 46.0882 42.5143 51.3862C33.3343 56.6842 26.2783 59.8822 23.1223 61.2262C20.4043 62.3872 17.3623 60.6262 17.0083 57.6952C16.5943 54.2692 15.8203 46.4902 15.8203 35.9842C15.8203 25.4842 16.5913 17.7082 17.0083 14.2792Z" fill="white"/>
</g>
<defs>
<clipPath id="clip0_113_3508">
<rect width="72" height="72" fill="white"/>
</clipPath>
</defs>
</svg>
