<svg width="34" height="34" viewBox="0 0 34 34" fill="none" xmlns="http://www.w3.org/2000/svg">
<g clip-path="url(#clip0_116_3985)">
<path d="M33.0564 0.304367C33.2006 0.448795 33.2992 0.632406 33.3399 0.832392C33.3807 1.03238 33.3618 1.23993 33.2855 1.42925L21.1638 31.7325C21.057 31.9993 20.8786 32.2316 20.6483 32.4036C20.418 32.5756 20.1447 32.6808 19.8585 32.7075C19.5723 32.7342 19.2843 32.6814 19.0261 32.555C18.768 32.4285 18.5497 32.2333 18.3954 31.9908L11.7752 21.5856L1.36999 14.9654C1.12692 14.8112 0.931181 14.5929 0.804357 14.3345C0.677532 14.0761 0.624558 13.7877 0.651278 13.5011C0.677999 13.2145 0.783376 12.9408 0.955781 12.7103C1.12819 12.4798 1.36092 12.3014 1.6283 12.1948L31.9315 0.0773064C32.1208 0.0010896 32.3284 -0.0178246 32.5284 0.0229134C32.7284 0.0636513 32.912 0.162246 33.0564 0.30645V0.304367ZM13.8542 20.9773L19.6057 30.0139L29.4651 5.36636L13.8542 20.9773ZM27.9923 3.89359L3.34479 13.753L12.3835 19.5024L27.9944 3.89359H27.9923Z" fill="#656565"/>
</g>
<defs>
<clipPath id="clip0_116_3985">
<rect width="33.33" height="33.33" fill="white" transform="translate(0.03125)"/>
</clipPath>
</defs>
</svg>
