<svg width="22" height="22" viewBox="0 0 22 22" fill="none" xmlns="http://www.w3.org/2000/svg">
<path d="M7.73625 20.5732H4.20125C2.4425 20.5732 1.59375 19.7595 1.59375 18.0795V4.25449C1.59375 2.57449 2.45125 1.76074 4.20125 1.76074H7.73625C9.495 1.76074 10.3438 2.57449 10.3438 4.25449V18.0795C10.3438 19.7595 9.48625 20.5732 7.73625 20.5732ZM4.20125 3.07324C3.09 3.07324 2.90625 3.37074 2.90625 4.25449V18.0795C2.90625 18.9632 3.09 19.2607 4.20125 19.2607H7.73625C8.8475 19.2607 9.03125 18.9632 9.03125 18.0795V4.25449C9.03125 3.37074 8.8475 3.07324 7.73625 3.07324H4.20125Z" fill="#07A2F3"/>
<path d="M17.7988 10.5107H14.2637C12.505 10.5107 11.6562 9.73199 11.6562 8.12199V4.14949C11.6562 2.53949 12.5137 1.76074 14.2637 1.76074H17.7988C19.5575 1.76074 20.4062 2.53949 20.4062 4.14949V8.11324C20.4062 9.73199 19.5488 10.5107 17.7988 10.5107ZM14.2637 3.07324C13.0912 3.07324 12.9688 3.40574 12.9688 4.14949V8.11324C12.9688 8.86574 13.0912 9.18949 14.2637 9.18949H17.7988C18.9713 9.18949 19.0938 8.85699 19.0938 8.11324V4.14949C19.0938 3.39699 18.9713 3.07324 17.7988 3.07324H14.2637Z" fill="#07A2F3"/>
<path d="M17.7988 20.5732H14.2637C12.505 20.5732 11.6562 19.7157 11.6562 17.9657V14.4307C11.6562 12.672 12.5137 11.8232 14.2637 11.8232H17.7988C19.5575 11.8232 20.4062 12.6807 20.4062 14.4307V17.9657C20.4062 19.7157 19.5488 20.5732 17.7988 20.5732ZM14.2637 13.1357C13.2312 13.1357 12.9688 13.3982 12.9688 14.4307V17.9657C12.9688 18.9982 13.2312 19.2607 14.2637 19.2607H17.7988C18.8313 19.2607 19.0938 18.9982 19.0938 17.9657V14.4307C19.0938 13.3982 18.8313 13.1357 17.7988 13.1357H14.2637Z" fill="#07A2F3"/>
</svg>
