<svg width="24" height="25" viewBox="0 0 24 25" fill="none" xmlns="http://www.w3.org/2000/svg">
<path d="M4 19.667H8V11.667H4V19.667ZM10 19.667H14V5.66699H10V19.667ZM16 19.667H20V13.667H16V19.667ZM2 19.667V11.667C2 11.117 2.196 10.646 2.588 10.254C2.98 9.86199 3.45067 9.66633 4 9.66699H8V5.66699C8 5.11699 8.196 4.64599 8.588 4.25399C8.98 3.86199 9.45067 3.66633 10 3.66699H14C14.55 3.66699 15.021 3.86299 15.413 4.25499C15.805 4.64699 16.0007 5.11766 16 5.66699V11.667H20C20.55 11.667 21.021 11.863 21.413 12.255C21.805 12.647 22.0007 13.1177 22 13.667V19.667C22 20.217 21.804 20.688 21.412 21.08C21.02 21.472 20.5493 21.6677 20 21.667H4C3.45 21.667 2.979 21.471 2.587 21.079C2.195 20.687 1.99934 20.2163 2 19.667Z" fill="#79869F"/>
</svg>
