<svg width="30" height="30" viewBox="0 0 30 30" fill="none" xmlns="http://www.w3.org/2000/svg">
<path d="M8.01589 2.88062H18.7507C19.3834 2.88062 19.9902 3.13195 20.4375 3.57932C20.8849 4.02669 21.1362 4.63345 21.1362 5.26613V7.65165H18.7507V5.26613H8.01589V24.3503H18.7507V21.9647H21.1362V24.3503C21.1362 24.9829 20.8849 25.5897 20.4375 26.0371C19.9902 26.4844 19.3834 26.7358 18.7507 26.7358H8.01589C7.38321 26.7358 6.77644 26.4844 6.32907 26.0371C5.8817 25.5897 5.63037 24.9829 5.63037 24.3503V5.26613C5.63037 4.63345 5.8817 4.02669 6.32907 3.57932C6.77644 3.13195 7.38321 2.88062 8.01589 2.88062Z" fill="#896DDB"/>
<path d="M20.046 19.0903L21.7278 20.7721L27.6916 14.8083L21.7278 8.84448L20.046 10.5263L23.1233 13.6155H11.5894V16.001H23.1233L20.046 19.0903Z" fill="#896DDB"/>
</svg>
