<svg width="22" height="20" viewBox="0 0 22 20" fill="none" xmlns="http://www.w3.org/2000/svg">
<path d="M3.78697 14.7224C3.17298 14.7224 2.57279 14.5403 2.06228 14.1992C1.55178 13.8581 1.15388 13.3732 0.918923 12.806C0.683962 12.2388 0.622486 11.6146 0.742268 11.0124C0.86205 10.4102 1.15771 9.85707 1.59186 9.42292C2.02601 8.98876 2.57915 8.6931 3.18134 8.57332C3.78352 8.45354 4.4077 8.51502 4.97495 8.74998C5.54219 8.98494 6.02703 9.38283 6.36814 9.89334C6.70925 10.4038 6.89131 11.004 6.89131 11.618C6.89035 12.441 6.56297 13.2301 5.981 13.8121C5.39904 14.394 4.60999 14.7214 3.78697 14.7224ZM3.78697 9.60933C3.38968 9.60933 3.00132 9.72713 2.67099 9.94785C2.34067 10.1686 2.08321 10.4823 1.93117 10.8493C1.77914 11.2164 1.73936 11.6203 1.81687 12.0099C1.89437 12.3995 2.08568 12.7575 2.3666 13.0384C2.64753 13.3193 3.00544 13.5106 3.39509 13.5881C3.78474 13.6656 4.18862 13.6258 4.55566 13.4738C4.9227 13.3218 5.23642 13.0643 5.45714 12.734C5.67785 12.4037 5.79566 12.0153 5.79566 11.618C5.7947 11.0856 5.58276 10.5752 5.20626 10.1987C4.82977 9.82223 4.31941 9.61029 3.78697 9.60933Z" fill="#07A2F3" stroke="#07A2F3" stroke-width="0.2"/>
<path d="M6.52609 19.1052H1.04783C0.902534 19.1052 0.763192 19.0475 0.660455 18.9448C0.557717 18.842 0.5 18.7027 0.5 18.5574V16.0009C0.500966 15.3716 0.751384 14.7683 1.19637 14.3233C1.64136 13.8783 2.24461 13.6279 2.87391 13.627H4.7C5.3293 13.6279 5.93256 13.8783 6.37754 14.3233C6.82253 14.7683 7.07295 15.3716 7.07391 16.0009V18.5574C7.07391 18.7027 7.0162 18.842 6.91346 18.9448C6.81072 19.0475 6.67138 19.1052 6.52609 19.1052ZM1.59565 18.0096H5.97826V16.0009C5.97826 15.6619 5.84359 15.3367 5.60387 15.097C5.36415 14.8573 5.03902 14.7226 4.7 14.7226H2.87391C2.5349 14.7226 2.20977 14.8573 1.97005 15.097C1.73033 15.3367 1.59565 15.6619 1.59565 16.0009V18.0096Z" fill="#07A2F3" stroke="#07A2F3" stroke-width="0.2"/>
<path d="M6.70879 16.9138C6.60335 16.914 6.5001 16.8838 6.41141 16.8268C6.32272 16.7698 6.25237 16.6884 6.2088 16.5924C6.16522 16.4964 6.15028 16.3898 6.16577 16.2855C6.18125 16.1812 6.22651 16.0836 6.29609 16.0044L11.4091 10.1609C11.506 10.0515 11.6424 9.98499 11.7883 9.97608C11.9341 9.96718 12.0776 10.0166 12.187 10.1135C12.2965 10.2103 12.363 10.3467 12.3719 10.4926C12.3808 10.6385 12.3314 10.7819 12.2345 10.8914L7.12148 16.7348C7.06943 16.7924 7.00567 16.8381 6.93449 16.869C6.86332 16.8998 6.78636 16.9151 6.70879 16.9138ZM20.9523 1.93989H3.05662C2.91132 1.93989 2.77198 1.88217 2.66924 1.77944C2.56651 1.6767 2.50879 1.53736 2.50879 1.39206C2.50879 1.24677 2.56651 1.10743 2.66924 1.00469C2.77198 0.901955 2.91132 0.844238 3.05662 0.844238H20.9523C21.0976 0.844238 21.2369 0.901955 21.3396 1.00469C21.4424 1.10743 21.5001 1.24677 21.5001 1.39206C21.5001 1.53736 21.4424 1.6767 21.3396 1.77944C21.2369 1.88217 21.0976 1.93989 20.9523 1.93989ZM20.9523 13.2616H13.2827C13.1374 13.2616 12.9981 13.2039 12.8953 13.1012C12.7926 12.9984 12.7349 12.8591 12.7349 12.7138C12.7349 12.5685 12.7926 12.4292 12.8953 12.3264C12.9981 12.2237 13.1374 12.166 13.2827 12.166H20.9523C21.0976 12.166 21.2369 12.2237 21.3396 12.3264C21.4424 12.4292 21.5001 12.5685 21.5001 12.7138C21.5001 12.8591 21.4424 12.9984 21.3396 13.1012C21.2369 13.2039 21.0976 13.2616 20.9523 13.2616Z" fill="#07A2F3" stroke="#07A2F3" stroke-width="0.2"/>
<path d="M19.4912 13.2616C19.3459 13.2616 19.2066 13.2039 19.1038 13.1012C19.0011 12.9984 18.9434 12.8591 18.9434 12.7138V1.39206C18.9434 1.24677 19.0011 1.10743 19.1038 1.00469C19.2066 0.901955 19.3459 0.844238 19.4912 0.844238C19.6365 0.844238 19.7759 0.901955 19.8786 1.00469C19.9813 1.10743 20.039 1.24677 20.039 1.39206V12.7138C20.039 12.8591 19.9813 12.9984 19.8786 13.1012C19.7759 13.2039 19.6365 13.2616 19.4912 13.2616ZM4.51731 7.05293C4.37202 7.05293 4.23267 6.99522 4.12994 6.89248C4.0272 6.78974 3.96948 6.6504 3.96948 6.50511V1.39206C3.96948 1.24677 4.0272 1.10743 4.12994 1.00469C4.23267 0.901955 4.37202 0.844238 4.51731 0.844238C4.6626 0.844238 4.80194 0.901955 4.90468 1.00469C5.00742 1.10743 5.06513 1.24677 5.06513 1.39206V6.50511C5.06513 6.6504 5.00742 6.78974 4.90468 6.89248C4.80194 6.99522 4.6626 7.05293 4.51731 7.05293ZM12.5521 5.22685H8.5347C8.38941 5.22685 8.25007 5.16913 8.14733 5.06639C8.04459 4.96365 7.98687 4.82431 7.98687 4.67902C7.98687 4.53373 8.04459 4.39439 8.14733 4.29165C8.25007 4.18891 8.38941 4.1312 8.5347 4.1312H12.5521C12.6974 4.1312 12.8367 4.18891 12.9395 4.29165C13.0422 4.39439 13.0999 4.53373 13.0999 4.67902C13.0999 4.82431 13.0422 4.96365 12.9395 5.06639C12.8367 5.16913 12.6974 5.22685 12.5521 5.22685ZM15.1086 8.14859H8.5347C8.38941 8.14859 8.25007 8.09087 8.14733 7.98813C8.04459 7.88539 7.98687 7.74605 7.98687 7.60076C7.98687 7.45547 8.04459 7.31613 8.14733 7.21339C8.25007 7.11065 8.38941 7.05293 8.5347 7.05293H15.1086C15.2539 7.05293 15.3932 7.11065 15.496 7.21339C15.5987 7.31613 15.6564 7.45547 15.6564 7.60076C15.6564 7.74605 15.5987 7.88539 15.496 7.98813C15.3932 8.09087 15.2539 8.14859 15.1086 8.14859Z" fill="#07A2F3" stroke="#07A2F3" stroke-width="0.2"/>
</svg>
