<svg width="22" height="20" viewBox="0 0 22 20" fill="none" xmlns="http://www.w3.org/2000/svg">
<path d="M3.78697 14.7229C3.17298 14.7229 2.57279 14.5408 2.06228 14.1997C1.55178 13.8586 1.15388 13.3737 0.918923 12.8065C0.683962 12.2392 0.622486 11.6151 0.742268 11.0129C0.86205 10.4107 1.15771 9.85755 1.59186 9.4234C2.02601 8.98925 2.57915 8.69359 3.18134 8.57381C3.78352 8.45403 4.4077 8.51551 4.97495 8.75047C5.54219 8.98543 6.02703 9.38332 6.36814 9.89383C6.70925 10.4043 6.89131 11.0045 6.89131 11.6185C6.89035 12.4415 6.56297 13.2306 5.981 13.8125C5.39904 14.3945 4.60999 14.7219 3.78697 14.7229ZM3.78697 9.60981C3.38968 9.60981 3.00132 9.72762 2.67099 9.94834C2.34067 10.1691 2.08321 10.4828 1.93117 10.8498C1.77914 11.2169 1.73936 11.6207 1.81687 12.0104C1.89437 12.4 2.08568 12.758 2.3666 13.0389C2.64753 13.3198 3.00544 13.5111 3.39509 13.5886C3.78474 13.6661 4.18862 13.6263 4.55566 13.4743C4.9227 13.3223 5.23642 13.0648 5.45714 12.7345C5.67785 12.4042 5.79566 12.0158 5.79566 11.6185C5.7947 11.0861 5.58276 10.5757 5.20626 10.1992C4.82977 9.82272 4.31941 9.61078 3.78697 9.60981Z" fill="#79869F" stroke="#79869F" stroke-width="0.2"/>
<path d="M6.52609 19.1055H1.04783C0.902534 19.1055 0.763192 19.0477 0.660455 18.945C0.557717 18.8423 0.5 18.7029 0.5 18.5576V16.0011C0.500966 15.3718 0.751384 14.7686 1.19637 14.3236C1.64136 13.8786 2.24461 13.6282 2.87391 13.6272H4.7C5.3293 13.6282 5.93256 13.8786 6.37754 14.3236C6.82253 14.7686 7.07295 15.3718 7.07391 16.0011V18.5576C7.07391 18.7029 7.0162 18.8423 6.91346 18.945C6.81072 19.0477 6.67138 19.1055 6.52609 19.1055ZM1.59565 18.0098H5.97826V16.0011C5.97826 15.6621 5.84359 15.337 5.60387 15.0972C5.36415 14.8575 5.03902 14.7228 4.7 14.7228H2.87391C2.5349 14.7228 2.20977 14.8575 1.97005 15.0972C1.73033 15.337 1.59565 15.6621 1.59565 16.0011V18.0098Z" fill="#79869F" stroke="#79869F" stroke-width="0.2"/>
<path d="M6.70879 16.914C6.60335 16.9143 6.5001 16.8841 6.41141 16.827C6.32272 16.77 6.25237 16.6886 6.2088 16.5926C6.16522 16.4966 6.15028 16.3901 6.16577 16.2858C6.18125 16.1815 6.22651 16.0839 6.29609 16.0047L11.4091 10.1612C11.506 10.0517 11.6424 9.98523 11.7883 9.97633C11.9341 9.96742 12.0776 10.0168 12.187 10.1137C12.2965 10.2106 12.363 10.3469 12.3719 10.4928C12.3808 10.6387 12.3314 10.7822 12.2345 10.8916L7.12148 16.7351C7.06943 16.7926 7.00567 16.8383 6.93449 16.8692C6.86332 16.9001 6.78636 16.9154 6.70879 16.914ZM20.9523 1.94013H3.05662C2.91132 1.94013 2.77198 1.88242 2.66924 1.77968C2.56651 1.67694 2.50879 1.5376 2.50879 1.39231C2.50879 1.24702 2.56651 1.10767 2.66924 1.00494C2.77198 0.9022 2.91132 0.844482 3.05662 0.844482H20.9523C21.0976 0.844482 21.2369 0.9022 21.3396 1.00494C21.4424 1.10767 21.5001 1.24702 21.5001 1.39231C21.5001 1.5376 21.4424 1.67694 21.3396 1.77968C21.2369 1.88242 21.0976 1.94013 20.9523 1.94013ZM20.9523 13.2619H13.2827C13.1374 13.2619 12.9981 13.2042 12.8953 13.1014C12.7926 12.9987 12.7349 12.8593 12.7349 12.714C12.7349 12.5688 12.7926 12.4294 12.8953 12.3267C12.9981 12.2239 13.1374 12.1662 13.2827 12.1662H20.9523C21.0976 12.1662 21.2369 12.2239 21.3396 12.3267C21.4424 12.4294 21.5001 12.5688 21.5001 12.714C21.5001 12.8593 21.4424 12.9987 21.3396 13.1014C21.2369 13.2042 21.0976 13.2619 20.9523 13.2619Z" fill="#79869F" stroke="#79869F" stroke-width="0.2"/>
<path d="M19.4915 13.2619C19.3462 13.2619 19.2068 13.2042 19.1041 13.1014C19.0014 12.9987 18.9436 12.8593 18.9436 12.714V1.39231C18.9436 1.24702 19.0014 1.10767 19.1041 1.00494C19.2068 0.9022 19.3462 0.844482 19.4915 0.844482C19.6368 0.844482 19.7761 0.9022 19.8788 1.00494C19.9816 1.10767 20.0393 1.24702 20.0393 1.39231V12.714C20.0393 12.8593 19.9816 12.9987 19.8788 13.1014C19.7761 13.2042 19.6368 13.2619 19.4915 13.2619ZM4.51755 7.05318C4.37226 7.05318 4.23292 6.99546 4.13018 6.89272C4.02744 6.78999 3.96973 6.65064 3.96973 6.50535V1.39231C3.96973 1.24702 4.02744 1.10767 4.13018 1.00494C4.23292 0.9022 4.37226 0.844482 4.51755 0.844482C4.66285 0.844482 4.80219 0.9022 4.90492 1.00494C5.00766 1.10767 5.06538 1.24702 5.06538 1.39231V6.50535C5.06538 6.65064 5.00766 6.78999 4.90492 6.89272C4.80219 6.99546 4.66285 7.05318 4.51755 7.05318ZM12.5523 5.22709H8.53494C8.38965 5.22709 8.25031 5.16937 8.14757 5.06664C8.04484 4.9639 7.98712 4.82456 7.98712 4.67927C7.98712 4.53397 8.04484 4.39463 8.14757 4.29189C8.25031 4.18916 8.38965 4.13144 8.53494 4.13144H12.5523C12.6976 4.13144 12.837 4.18916 12.9397 4.29189C13.0424 4.39463 13.1002 4.53397 13.1002 4.67927C13.1002 4.82456 13.0424 4.9639 12.9397 5.06664C12.837 5.16937 12.6976 5.22709 12.5523 5.22709ZM15.1089 8.14883H8.53494C8.38965 8.14883 8.25031 8.09111 8.14757 7.98838C8.04484 7.88564 7.98712 7.7463 7.98712 7.601C7.98712 7.45571 8.04484 7.31637 8.14757 7.21363C8.25031 7.1109 8.38965 7.05318 8.53494 7.05318H15.1089C15.2541 7.05318 15.3935 7.1109 15.4962 7.21363C15.599 7.31637 15.6567 7.45571 15.6567 7.601C15.6567 7.7463 15.599 7.88564 15.4962 7.98838C15.3935 8.09111 15.2541 8.14883 15.1089 8.14883Z" fill="#79869F" stroke="#79869F" stroke-width="0.2"/>
</svg>
