<svg width="22" height="24" viewBox="0 0 22 24" fill="none" xmlns="http://www.w3.org/2000/svg">
<path d="M21.3118 4.45866L11.1505 0.695218C11.0753 0.657584 10.9624 0.657584 10.8871 0.695218L0.725806 4.45866C0.612903 4.49629 0.5 4.64683 0.5 4.79737C0.5 4.94791 0.612903 5.09844 0.763441 5.13608L4.26344 6.45328V8.56081C4.26344 8.63608 4.26344 8.67371 4.30108 8.74898C4.33871 8.78662 4.52688 9.16296 5.01613 9.61457C5.01613 9.65221 4.97849 9.68984 4.97849 9.72748V9.76511C3.92473 9.95328 3.09677 10.8565 3.09677 11.9855C3.09677 13.1146 3.92473 14.0178 4.97849 14.206V14.3189C4.97849 14.3565 5.27957 16.2382 6.67204 17.7436C4.67742 18.7221 3.05914 20.378 2.11828 22.4103C2.08065 22.5232 2.08064 22.6737 2.15591 22.7866C2.23118 22.8995 2.34409 22.9748 2.45699 22.9748H19.543C19.6559 22.9748 19.8065 22.8995 19.8441 22.7866C19.8817 22.6737 19.9194 22.5608 19.8817 22.4103C18.9409 20.378 17.3226 18.7597 15.328 17.7436C16.6828 16.2382 17.0215 14.3565 17.0215 14.3189V14.206C18.0753 14.0178 18.9032 13.1146 18.9032 11.9855C18.9032 10.8565 18.0753 9.95328 17.0215 9.76511V9.72748C17.0215 9.68984 17.0215 9.65221 16.9839 9.61457C17.4731 9.16296 17.6989 8.82425 17.6989 8.74898C17.7366 8.67371 17.7366 8.63608 17.7366 8.56081V6.45328L19.2419 5.88877V9.01242C18.7903 9.16296 18.4892 9.57694 18.4892 10.0662C18.4892 10.706 18.9785 11.1952 19.6183 11.1952C20.2581 11.1952 20.7473 10.706 20.7473 10.0662C20.7473 9.57694 20.4462 9.16296 19.9946 9.01242V5.62533L21.2366 5.17371C21.3871 5.13608 21.5 4.98554 21.5 4.835C21.5 4.68447 21.4624 4.49629 21.3118 4.45866ZM19.6935 10.4425C19.4677 10.4425 19.3172 10.292 19.3172 10.0662C19.3172 9.84038 19.4677 9.68984 19.6935 9.68984C19.9194 9.68984 20.0699 9.84038 20.0699 10.0662C20.0699 10.292 19.9194 10.4425 19.6935 10.4425ZM5.76882 10.1791C6.22043 10.4802 6.74731 10.7812 7.42473 11.007C7.16129 11.3458 6.59677 11.7974 5.76882 11.9103V10.1791ZM3.8871 11.9479C3.8871 11.2329 4.37634 10.6683 5.01613 10.4802V13.378C4.37634 13.2275 3.8871 12.663 3.8871 11.9479ZM7.27419 18.2329C7.87634 18.7221 8.62903 19.1361 9.56989 19.3242L11.1129 22.1092H3.05914C4.03763 20.378 5.50538 19.0232 7.27419 18.2329ZM10.5484 19.4748H11.5269L11.0376 20.3027L10.5484 19.4748ZM18.9785 22.1092H12.0161L11.414 21.0554L12.4677 19.3242C13.4086 19.1361 14.1613 18.7221 14.7634 18.2329C16.5699 19.0232 18.0376 20.378 18.9785 22.1092ZM16.3065 14.1683C16.2312 14.5823 15.4409 18.7221 11.0376 18.7221C6.67204 18.7221 5.84409 14.5823 5.76882 14.1683V12.663C7.16129 12.5124 7.91398 11.6468 8.21505 11.2329C8.55376 11.3081 8.89247 11.3834 9.26882 11.4587C9.45699 11.7597 10.586 13.2651 12.4677 13.6038C12.7312 13.6415 12.9946 13.6791 13.2581 13.6791H13.2957V13.8673C13.2957 14.0931 13.4462 14.2436 13.672 14.2436C13.8978 14.2436 14.0484 14.0931 14.0484 13.8673V13.6038C14.8011 13.4909 15.5538 13.1522 16.3065 12.7006V14.1683ZM16.3065 11.7597C15.0269 12.7006 13.7473 13.0769 12.6183 12.8511C11.5645 12.663 10.7742 12.0232 10.3226 11.5339C10.5484 11.5339 10.8118 11.5716 11.0376 11.5716C13.5968 11.5716 15.2527 10.8941 16.3065 10.1791V11.7597ZM18.1882 11.9479C18.1882 12.663 17.6989 13.2275 17.0591 13.4156V10.5178C17.6989 10.6683 18.1882 11.2329 18.1882 11.9479ZM17.0591 8.44791C16.7581 8.86189 15.2151 10.8189 11.0376 10.8189C6.86021 10.8189 5.3172 8.86189 5.01613 8.44791V6.71672L10.9247 8.89952C10.9624 8.89952 11 8.93715 11.0376 8.93715C11.0753 8.93715 11.1129 8.93715 11.1505 8.89952L17.0591 6.71672V8.44791ZM11.0376 8.14683L1.96774 4.79737L11.0376 1.44791L20.1075 4.79737L11.0376 8.14683Z" fill="#07A2F3" stroke="#07A2F3" stroke-width="0.5"/>
</svg>
