<svg width="34" height="34" viewBox="0 0 34 34" fill="none" xmlns="http://www.w3.org/2000/svg">
<g clip-path="url(#clip0_76_4291)">
<path d="M16.6958 31.2469C12.8284 31.2469 9.11945 29.7106 6.38482 26.9759C3.65019 24.2413 2.11389 20.5324 2.11389 16.665C2.11389 12.7976 3.65019 9.08869 6.38482 6.35406C9.11945 3.61943 12.8284 2.08313 16.6958 2.08313C20.5631 2.08313 24.2721 3.61943 27.0067 6.35406C29.7413 9.08869 31.2776 12.7976 31.2776 16.665C31.2776 20.5324 29.7413 24.2413 27.0067 26.9759C24.2721 29.7106 20.5631 31.2469 16.6958 31.2469ZM16.6958 33.33C21.1156 33.33 25.3544 31.5742 28.4797 28.4489C31.605 25.3236 33.3608 21.0848 33.3608 16.665C33.3608 12.2452 31.605 8.00636 28.4797 4.88107C25.3544 1.75577 21.1156 0 16.6958 0C12.2759 0 8.03712 1.75577 4.91183 4.88107C1.78653 8.00636 0.0307617 12.2452 0.0307617 16.665C0.0307617 21.0848 1.78653 25.3236 4.91183 28.4489C8.03712 31.5742 12.2759 33.33 16.6958 33.33Z" fill="#656565"/>
<path d="M8.95679 19.9296C9.19601 19.7915 9.4803 19.7541 9.74712 19.8256C10.0139 19.8971 10.2414 20.0716 10.3796 20.3109C11.0193 21.4198 11.9399 22.3406 13.0487 22.9806C14.1575 23.6205 15.4154 23.9571 16.6956 23.9563C17.9758 23.9571 19.2337 23.6205 20.3425 22.9806C21.4513 22.3406 22.3719 21.4198 23.0116 20.3109C23.0795 20.1914 23.1704 20.0866 23.2789 20.0025C23.3875 19.9183 23.5116 19.8565 23.6442 19.8205C23.7767 19.7845 23.9151 19.7751 24.0513 19.7928C24.1875 19.8105 24.3189 19.855 24.4379 19.9236C24.5568 19.9923 24.661 20.0839 24.7445 20.193C24.8279 20.3021 24.8889 20.4266 24.924 20.5594C24.9592 20.6922 24.9677 20.8307 24.949 20.9668C24.9304 21.1029 24.8851 21.2339 24.8156 21.3524C23.993 22.778 22.8095 23.9618 21.384 24.7846C19.9585 25.6074 18.3415 26.0402 16.6956 26.0395C15.0497 26.0402 13.4327 25.6074 12.0072 24.7846C10.5817 23.9618 9.39815 22.778 8.57558 21.3524C8.43746 21.1132 8.40003 20.8289 8.47152 20.5621C8.54302 20.2953 8.71757 20.0678 8.95679 19.9296ZM14.6125 13.5407C14.6125 15.2655 13.6792 16.6654 12.5293 16.6654C11.3795 16.6654 10.4462 15.2655 10.4462 13.5407C10.4462 11.8159 11.3795 10.416 12.5293 10.416C13.6792 10.416 14.6125 11.8159 14.6125 13.5407ZM22.945 13.5407C22.945 15.2655 22.0117 16.6654 20.8618 16.6654C19.712 16.6654 18.7787 15.2655 18.7787 13.5407C18.7787 11.8159 19.712 10.416 20.8618 10.416C22.0117 10.416 22.945 11.8159 22.945 13.5407Z" fill="#656565"/>
</g>
<defs>
<clipPath id="clip0_76_4291">
<rect width="33.33" height="33.33" fill="white" transform="translate(0.0307617)"/>
</clipPath>
</defs>
</svg>
