<svg width="110" height="111" viewBox="0 0 110 111" fill="none" xmlns="http://www.w3.org/2000/svg">
<path d="M91.8027 31.3232C92.4473 31.9678 92.8125 32.8379 92.8125 33.751V99.998C92.8125 101.899 91.2764 103.436 89.375 103.436H20.625C18.7236 103.436 17.1875 101.899 17.1875 99.998V10.623C17.1875 8.72168 18.7236 7.18555 20.625 7.18555H66.2471C67.1602 7.18555 68.041 7.55078 68.6856 8.19531L91.8027 31.3232ZM84.8848 35.3301L64.668 15.1133V35.3301H84.8848ZM68.0217 68.7662C66.391 68.7125 64.6572 68.8382 62.6882 69.0842C60.0778 67.4739 58.3204 65.2621 57.0722 62.0126L57.1871 61.5421L57.3203 60.9856C57.7822 59.0381 58.0304 57.6169 58.1045 56.1839C58.1604 55.1021 58.1002 54.1042 57.9079 53.1793C57.5534 51.1823 56.1408 50.0146 54.3608 49.9427C52.7012 49.875 51.1758 50.8021 50.7858 52.2383C50.151 54.5607 50.5227 57.6169 51.8687 62.829C50.1542 66.9164 47.8887 71.7085 46.3687 74.3812C44.3395 75.4274 42.7593 76.3792 41.4315 77.4341C39.6806 78.8273 38.587 80.2593 38.2862 81.7632C38.1401 82.4604 38.3604 83.3713 38.862 84.1179C39.4313 84.9644 40.2886 85.5143 41.3166 85.5938C43.9108 85.7947 47.0991 83.1199 50.6193 77.0796C50.9728 76.9614 51.3466 76.8368 51.8031 76.6821L53.0814 76.2503C53.8903 75.9774 54.4769 75.7819 55.0569 75.5939C57.5706 74.7754 59.472 74.2587 61.2015 73.9644C64.2071 75.5735 67.6812 76.6284 70.0208 76.6284C71.9522 76.6284 73.2574 75.6272 73.729 74.0514C74.1426 72.6678 73.8149 71.0629 72.9255 70.1756C72.006 69.2722 70.3151 68.8403 68.0217 68.7662ZM41.3821 82.5613V82.5227L41.3961 82.4861C41.5533 82.0798 41.755 81.6921 41.9977 81.3303C42.4574 80.6234 43.0901 79.8801 43.8743 79.0884C44.2954 78.6641 44.7337 78.2505 45.2482 77.7864C45.3632 77.6833 46.0979 77.0291 46.2354 76.9002L47.4354 75.783L46.5631 77.172C45.2396 79.2817 44.043 80.8007 43.0182 81.7911C42.6411 82.1563 42.3092 82.4249 42.0406 82.5979C41.952 82.6571 41.8581 82.7081 41.7603 82.7504C41.7162 82.7687 41.6775 82.7794 41.6389 82.7826C41.598 82.7878 41.5566 82.7823 41.5186 82.7665C41.4781 82.7496 41.4436 82.721 41.4193 82.6845C41.3951 82.648 41.3821 82.6052 41.3821 82.5613ZM54.9108 59.1133L54.6681 59.543L54.5177 59.0725C54.1847 58.0165 53.9397 56.4256 53.8721 54.9904C53.7947 53.3576 53.9247 52.3779 54.4403 52.3779C55.1644 52.3779 55.4963 53.5381 55.5221 55.2837C55.5457 56.8177 55.304 58.414 54.9098 59.1133H54.9108ZM54.2867 65.3932L54.4511 64.9581L54.6756 65.3663C55.9313 67.6479 57.5609 69.5515 59.3527 70.8781L59.7395 71.1639L59.2679 71.2605C57.5137 71.6236 55.8798 72.1693 53.6454 73.0706C53.8785 72.9761 51.3229 74.0224 50.6763 74.2705L50.1123 74.4864L50.4131 73.9622C51.7397 71.6526 52.9654 68.879 54.2856 65.3932H54.2867ZM71.2186 73.5852C70.3742 73.9182 68.5566 73.6206 65.3565 72.2542L64.5444 71.9083L65.4253 71.8438C67.9282 71.658 69.7007 71.7955 70.7341 72.1736C71.1745 72.3348 71.4678 72.5378 71.5978 72.7698C71.6662 72.8797 71.6892 73.0118 71.6619 73.1383C71.6346 73.2648 71.5592 73.3757 71.4517 73.4477C71.3834 73.5078 71.3042 73.5545 71.2186 73.5852Z" fill="black"/>
</svg>
