<svg width="34" height="34" viewBox="0 0 34 34" fill="none" xmlns="http://www.w3.org/2000/svg">
<path d="M6.81773 18.1373L16.3918 8.56329C17.3686 7.58651 18.6934 7.03776 20.0747 7.03776C21.4561 7.03776 22.7809 7.58651 23.7577 8.56329C24.7345 9.54008 25.2832 10.8649 25.2832 12.2463C25.2832 13.6276 24.7345 14.9524 23.7577 15.9292L12.7088 26.976C12.3159 27.3555 11.7897 27.5655 11.2435 27.5607C10.6973 27.556 10.1749 27.3369 9.78865 26.9507C9.40242 26.5644 9.18334 26.042 9.17859 25.4958C9.17384 24.9496 9.38381 24.4234 9.76327 24.0305L20.8101 12.9816C20.9998 12.7852 21.1048 12.5221 21.1024 12.249C21.1 11.9759 20.9905 11.7146 20.7974 11.5215C20.6043 11.3284 20.343 11.2189 20.0699 11.2165C19.7969 11.2141 19.5338 11.3191 19.3373 11.5088L8.2905 22.5598C7.89258 22.9441 7.57519 23.4039 7.35684 23.9122C7.13849 24.4205 7.02356 24.9672 7.01875 25.5203C7.01394 26.0735 7.11936 26.6221 7.32884 27.1342C7.53832 27.6462 7.84768 28.1113 8.23886 28.5025C8.63004 28.8937 9.09521 29.2031 9.60723 29.4125C10.1192 29.622 10.6679 29.7274 11.221 29.7226C11.7742 29.7178 12.3209 29.6029 12.8292 29.3846C13.3375 29.1662 13.7973 28.8488 14.1816 28.4509L25.2305 17.4041C26.5979 16.0367 27.3661 14.1821 27.3661 12.2483C27.3661 10.3146 26.5979 8.45999 25.2305 7.09261C23.8631 5.72522 22.0085 4.95703 20.0747 4.95703C18.141 4.95703 16.2864 5.72522 14.919 7.09261L5.34288 16.6646C5.2434 16.7606 5.16405 16.8756 5.10946 17.0027C5.05488 17.1297 5.02614 17.2664 5.02494 17.4047C5.02374 17.543 5.05009 17.6801 5.10246 17.8082C5.15483 17.9362 5.23217 18.0525 5.32997 18.1502C5.42776 18.248 5.54406 18.3254 5.67206 18.3777C5.80006 18.4301 5.93722 18.4565 6.07552 18.4553C6.21381 18.4541 6.35049 18.4253 6.47756 18.3708C6.60464 18.3162 6.71957 18.2368 6.81565 18.1373H6.81773Z" fill="#656565"/>
</svg>
