<svg width="35" height="35" viewBox="0 0 35 35" fill="none" xmlns="http://www.w3.org/2000/svg">
<rect x="0.980469" width="34" height="35" rx="17" fill="#969696" fill-opacity="0.24"/>
<path d="M17.9805 20C19.6405 20 20.9705 18.66 20.9705 17L20.9805 11C20.9805 9.34 19.6405 8 17.9805 8C16.3205 8 14.9805 9.34 14.9805 11V17C14.9805 18.66 16.3205 20 17.9805 20ZM23.2805 17C23.2805 20 20.7405 22.1 17.9805 22.1C15.2205 22.1 12.6805 20 12.6805 17H10.9805C10.9805 20.41 13.7005 23.23 16.9805 23.72V27H18.9805V23.72C22.2605 23.24 24.9805 20.42 24.9805 17H23.2805Z" fill="black"/>
</svg>
