<svg width="34" height="34" viewBox="0 0 34 34" fill="none" xmlns="http://www.w3.org/2000/svg">
<rect x="0.0175781" width="33.9638" height="33.9637" rx="16.9818" fill="#F70707"/>
<path d="M24.2213 20.25L21.6813 19.96C21.3826 19.9249 21.0799 19.958 20.7958 20.0567C20.5118 20.1554 20.2538 20.3173 20.0413 20.53L18.2013 22.37C15.3624 20.9262 13.055 18.6188 11.6113 15.78L13.4613 13.93C13.8913 13.5 14.1013 12.9 14.0313 12.29L13.7413 9.77C13.6846 9.28218 13.4504 8.83224 13.0835 8.50585C12.7165 8.17946 12.2424 7.99942 11.7513 8H10.0213C8.89125 8 7.95125 8.94 8.02125 10.07C8.55125 18.61 15.3813 25.43 23.9113 25.96C25.0413 26.03 25.9813 25.09 25.9813 23.96V22.23C25.9913 21.22 25.2313 20.37 24.2213 20.25Z" fill="white"/>
</svg>
