<svg width="117" height="93" viewBox="0 0 117 93" fill="none" xmlns="http://www.w3.org/2000/svg">
<path d="M26.9588 0.395576L0 26.6222H26.9588V0.395576ZM28.899 0.395576V26.6222H65.988V43.6556L92.6543 22.8889C92.586 17.1956 92.8054 12.3889 92.5324 6.74224C91.8109 1.65558 86.2583 -0.117758 81.6319 0.395576H28.899ZM112.613 10.6156C108.703 11.9922 105.992 15.2589 102.633 17.5689C90.4166 27.1356 78.3461 36.7956 66.2269 46.4556C80.9738 58.5422 95.6719 70.6289 110.419 82.6689C116.356 85.8003 117.38 78.8702 116.893 75.0156V14.3489C116.892 13.8228 116.778 13.3025 116.56 12.8198C116.341 12.3371 116.022 11.9022 115.622 11.5417C115.222 11.1813 114.749 10.9028 114.232 10.7235C113.715 10.5442 113.166 10.4678 112.617 10.4989L112.613 10.6156ZM0.18525 28.4889V64.4222H27.144V28.4889H0.18525ZM66.3731 66.2889H29.289V92.5156C48.126 92.4876 67.0069 92.5669 85.7415 92.4736C90.714 92.1469 93.6292 87.2469 92.898 82.8136V71.1003L66.2318 49.2602V66.2936L66.3731 66.2889ZM0.18525 66.2889C0.28275 73.0089 -0.014625 79.7289 0.346125 86.4022C1.13587 90.8262 5.99138 93.0756 10.3253 92.5156H27.2122V66.2889H0.18525Z" fill="black"/>
</svg>
