<svg width="320" height="320" viewBox="0 0 320 320" fill="none" xmlns="http://www.w3.org/2000/svg">
<path d="M187.719 20C189.836 20.0001 191.899 20.6721 193.61 21.9193C195.321 23.1664 196.591 24.9244 197.239 26.94L208.239 61.12C212.859 63.38 217.279 65.92 221.499 68.78L256.619 61.22C258.69 60.7779 260.848 61.0045 262.781 61.8671C264.715 62.7297 266.325 64.1838 267.379 66.02L295.099 114C296.158 115.835 296.606 117.959 296.38 120.065C296.153 122.172 295.264 124.152 293.839 125.72L269.739 152.32C270.09 157.421 270.09 162.539 269.739 167.64L293.839 194.28C295.264 195.848 296.153 197.828 296.38 199.935C296.606 202.041 296.158 204.165 295.099 206L267.379 254C266.322 255.833 264.711 257.283 262.777 258.141C260.844 259 258.688 259.224 256.619 258.78L221.499 251.22C217.299 254.06 212.859 256.62 208.259 258.88L197.239 293.06C196.591 295.076 195.321 296.834 193.61 298.081C191.899 299.328 189.836 300 187.719 300H132.279C130.162 300 128.1 299.328 126.389 298.081C124.678 296.834 123.407 295.076 122.759 293.06L111.779 258.9C107.172 256.647 102.727 254.074 98.4792 251.2L63.3792 258.78C61.3085 259.222 59.151 258.996 57.2173 258.133C55.2836 257.27 53.6736 255.816 52.6192 253.98L24.8992 206C23.8407 204.165 23.3924 202.041 23.6188 199.935C23.8453 197.828 24.7348 195.848 26.1592 194.28L50.2592 167.64C49.9101 162.553 49.9101 157.447 50.2592 152.36L26.1592 125.72C24.7348 124.152 23.8453 122.172 23.6188 120.065C23.3924 117.959 23.8407 115.835 24.8992 114L52.6192 66C53.6765 64.1675 55.2877 62.7175 57.2212 61.8586C59.1546 60.9997 61.3107 60.7761 63.3792 61.22L98.4792 68.8C102.719 65.94 107.159 63.36 111.779 61.1L122.779 26.94C123.425 24.9309 124.69 23.1776 126.393 21.931C128.095 20.6844 130.149 20.0085 132.259 20H187.699H187.719ZM180.399 40H139.599L128.239 75.34L120.579 79.08C116.814 80.9227 113.178 83.021 109.699 85.36L102.619 90.16L66.2992 82.32L45.8992 117.68L70.7992 145.24L70.1992 153.72C69.9119 157.902 69.9119 162.098 70.1992 166.28L70.7992 174.76L45.8592 202.32L66.2792 237.68L102.599 229.86L109.679 234.64C113.158 236.979 116.794 239.077 120.559 240.92L128.219 244.66L139.599 280H180.439L191.839 244.64L199.479 240.92C203.241 239.082 206.87 236.983 210.339 234.64L217.399 229.86L253.739 237.68L274.139 202.32L249.219 174.76L249.819 166.28C250.108 162.092 250.108 157.888 249.819 153.7L249.219 145.22L274.159 117.68L253.739 82.32L217.399 90.12L210.339 85.36C206.87 83.0163 203.241 80.9178 199.479 79.08L191.839 75.36L180.419 40H180.399ZM159.999 100C175.912 100 191.173 106.321 202.426 117.574C213.678 128.826 219.999 144.087 219.999 160C219.999 175.913 213.678 191.174 202.426 202.426C191.173 213.679 175.912 220 159.999 220C144.086 220 128.825 213.679 117.573 202.426C106.321 191.174 99.9992 175.913 99.9992 160C99.9992 144.087 106.321 128.826 117.573 117.574C128.825 106.321 144.086 100 159.999 100ZM159.999 120C149.391 120 139.216 124.214 131.715 131.716C124.214 139.217 119.999 149.391 119.999 160C119.999 170.609 124.214 180.783 131.715 188.284C139.216 195.786 149.391 200 159.999 200C170.608 200 180.782 195.786 188.284 188.284C195.785 180.783 199.999 170.609 199.999 160C199.999 149.391 195.785 139.217 188.284 131.716C180.782 124.214 170.608 120 159.999 120Z" fill="#38CFBA"/>
</svg>
